<svg width="26" height="15" viewBox="0 0 26 15" fill="none" xmlns="http://www.w3.org/2000/svg">
<path d="M13.2243 12.192V14.56H0.61625V12.192H7.20825C8.72292 12.192 9.48025 11.6587 9.48025 10.592C9.48025 10.08 9.18158 9.632 8.58425 9.248C8.00825 8.864 6.96292 8.55467 5.44825 8.32C2.26958 7.82933 0.68025 6.48533 0.68025 4.288C0.68025 3.15733 1.05358 2.26133 1.80025 1.6C2.54692 0.938666 3.61358 0.608 5.00025 0.608H11.1443V2.976H4.96825C3.90158 2.976 3.36825 3.41333 3.36825 4.288C3.36825 4.77866 3.63492 5.17333 4.16825 5.472C4.72292 5.77067 5.78958 6.06933 7.36825 6.368C9.03225 6.66667 10.2589 7.17867 11.0483 7.904C11.8376 8.62933 12.2323 9.49333 12.2323 10.496C12.2323 11.136 12.1256 11.7013 11.9123 12.192H13.2243Z" fill="#3C6255"/>
<path d="M12.7805 14.56V12.192H20.3645C21.8792 12.192 22.6365 11.6587 22.6365 10.592C22.6365 10.08 22.3378 9.632 21.7405 9.248C21.1645 8.864 20.1192 8.55467 18.6045 8.32C15.4258 7.82933 13.8365 6.48533 13.8365 4.288C13.8365 3.15733 14.2098 2.26133 14.9565 1.6C15.7032 0.938666 16.7698 0.608 18.1565 0.608H24.3005V2.976H18.1245C17.0578 2.976 16.5245 3.41333 16.5245 4.288C16.5245 4.77866 16.7912 5.17333 17.3245 5.472C17.8792 5.77067 18.9458 6.06933 20.5245 6.368C22.1885 6.66667 23.4152 7.17867 24.2045 7.904C24.9938 8.62933 25.3885 9.49333 25.3885 10.496C25.3885 11.776 24.9618 12.7787 24.1085 13.504C23.2552 14.208 21.9858 14.56 20.3005 14.56H12.7805Z" fill="#A6BB8D"/>
</svg>
