<svg width="23" height="26" viewBox="0 0 23 26" fill="none" xmlns="http://www.w3.org/2000/svg">
<path d="M2.56847 25.5833C0.878544 25.5833 0.200012 22.5619 0.0591842 21.3584C-0.0924265 20.1901 0.0483422 19.0023 0.468864 17.9018C0.653688 17.3781 0.971597 16.9115 1.39135 16.5478C1.8111 16.1842 2.31824 15.936 2.86293 15.8278C4.36082 15.5717 5.42343 16.4679 6.7805 16.7751C7.03542 16.857 7.30719 16.8713 7.56931 16.8168C7.83143 16.7623 8.07494 16.6408 8.27611 16.4641C8.47728 16.2874 8.62922 16.0617 8.71713 15.8088C8.80503 15.5559 8.8259 15.2845 8.77769 15.0212C8.21438 12.8192 4.20719 12.7808 2.56847 12.7808C2.56847 10.3995 5.18018 10.0922 7.04935 10.2715C8.15822 10.3786 9.25008 10.6193 10.3012 10.9884C10.9413 11.2061 11.6839 11.7566 12.388 11.7053C13.4506 11.6157 13.6682 10.5147 13.2074 9.70816C12.0935 7.81339 8.93132 7.65976 7.04935 7.65976C7.04935 5.09926 9.26418 4.61276 11.3894 4.99684C12.4867 5.21286 13.5561 5.55215 14.5772 6.00823C15.2301 6.28989 16.0111 6.82759 16.728 6.58435C18.5716 6.02104 16.6512 4.04945 15.8319 3.57576C15.2568 3.25843 14.6467 3.00923 14.0139 2.83321C13.3226 2.62837 12.4776 2.70519 13.1049 1.89863C14.0859 1.0332 15.3029 0.480415 16.6 0.311122C19.0197 -0.252188 22.3611 -0.354608 22.9501 2.69239C23.1463 4.30108 22.7603 5.9269 21.8618 7.27568C19.4762 11.355 16.5235 15.075 13.0921 18.3242C11.2744 20.1876 9.30451 21.8962 7.20298 23.4324C5.92273 24.3542 4.2328 25.5833 2.56847 25.5833Z" fill="black"/>
</svg>
