<svg width="25" height="25" viewBox="0 0 25 25" fill="none" xmlns="http://www.w3.org/2000/svg">
<path d="M22.7011 13.4163C23.5322 12.5863 24.1661 11.5801 24.5559 10.472C24.9457 9.36401 25.0814 8.18254 24.953 7.01499C24.8246 5.84744 24.4354 4.7237 23.8141 3.72686C23.1929 2.73003 22.3555 1.88562 21.3638 1.25608C18.8518 -0.406101 15.4899 -0.418599 12.9529 1.21859C10.7534 2.63082 9.54109 4.8304 9.32863 7.10496C9.16616 8.75465 8.54128 10.2919 7.3915 11.4416L7.354 11.4791C5.90428 12.9288 5.90428 15.1409 7.26652 16.4907L8.50378 17.7279C9.15856 18.3823 10.0464 18.7498 10.9721 18.7498C11.8977 18.7498 12.7856 18.3823 13.4403 17.7279C14.6526 16.5157 16.2523 15.8533 17.9895 15.6658C19.7016 15.4784 21.3763 14.7285 22.7011 13.4163ZM5.32939 22.327C5.66683 23.0269 5.55435 23.8768 4.96696 24.4516C4.71256 24.7099 4.38833 24.8882 4.03403 24.9649C3.67972 25.0415 3.31076 25.013 2.97239 24.883C2.63402 24.753 2.34097 24.527 2.12917 24.2328C1.91738 23.9386 1.79605 23.589 1.78007 23.2269C1.41793 23.2109 1.06832 23.0896 0.774139 22.8778C0.479955 22.666 0.253984 22.3729 0.123945 22.0346C-0.00609405 21.6962 -0.0345464 21.3272 0.0420778 20.9729C0.118702 20.6186 0.297071 20.2944 0.555305 20.04C1.1302 19.4651 1.99253 19.3401 2.6799 19.6776L5.7793 16.6406C5.95427 16.8781 6.15423 17.153 6.37919 17.378L7.61645 18.6153C7.8789 18.8652 8.12886 19.0777 8.45379 19.2651L5.32939 22.327Z" fill="black"/>
</svg>
