<svg width="18" height="21" viewBox="0 0 18 21" fill="none" xmlns="http://www.w3.org/2000/svg">
<path fill-rule="evenodd" clip-rule="evenodd" d="M9.69329 20.2575L9.68129 20.2595L9.61029 20.2945L9.59029 20.2985L9.57629 20.2945L9.50529 20.2585C9.49463 20.2559 9.48663 20.2579 9.48129 20.2645L9.47729 20.2745L9.46029 20.7025L9.46529 20.7225L9.47529 20.7355L9.57929 20.8095L9.59429 20.8135L9.60629 20.8095L9.71029 20.7355L9.72229 20.7195L9.72629 20.7025L9.70929 20.2755C9.70663 20.2649 9.70129 20.2589 9.69329 20.2575ZM9.95729 20.1445L9.94329 20.1465L9.75929 20.2395L9.74929 20.2495L9.74629 20.2605L9.76429 20.6905L9.76929 20.7025L9.77729 20.7105L9.97829 20.8025C9.99096 20.8059 10.0006 20.8032 10.0073 20.7945L10.0113 20.7805L9.97729 20.1665C9.97396 20.1539 9.96729 20.1465 9.95729 20.1445ZM9.24229 20.1465C9.23789 20.1439 9.23262 20.143 9.22759 20.1441C9.22256 20.1452 9.21815 20.1483 9.21529 20.1525L9.20929 20.1665L9.17529 20.7805C9.17596 20.7925 9.18163 20.8005 9.19229 20.8045L9.20729 20.8025L9.40829 20.7095L9.41829 20.7015L9.42129 20.6905L9.43929 20.2605L9.43629 20.2485L9.42629 20.2385L9.24229 20.1465Z" fill="#3C6255"/>
<path fill-rule="evenodd" clip-rule="evenodd" d="M1.8115 15.1405C0.274504 13.4506 -0.145496 11.3125 0.0415037 9.40255C0.247504 7.29555 1.2085 5.27455 2.4595 4.23155C4.1315 2.83855 5.8875 2.26655 7.4115 1.98655C8.15372 1.85983 8.90109 1.7654 9.6515 1.70355C10.0555 1.66555 10.4645 1.62755 10.8575 1.52955C11.6855 1.32255 12.5025 0.986549 13.1755 0.452549C13.4835 0.207549 13.7955 -0.0404507 14.2105 0.00554932C14.3597 0.0221457 14.5032 0.0721124 14.6305 0.151744C14.7577 0.231375 14.8654 0.338628 14.9455 0.465549C18.1455 5.53255 17.6625 10.9115 14.9895 14.2995C13.6545 15.9905 11.7795 17.1705 9.5925 17.5196C7.6845 17.8225 5.5995 17.4836 3.4985 16.3836C3.3139 16.9573 3.17677 17.5453 3.0885 18.1416C3.05098 18.4041 2.91068 18.641 2.69848 18.8001C2.48629 18.9593 2.21957 19.0276 1.957 18.99C1.69444 18.9525 1.45754 18.8122 1.29841 18.6C1.13929 18.3878 1.07098 18.1211 1.1085 17.8585C1.2325 16.9935 1.4685 16.0725 1.8115 15.1405ZM7.7715 3.95355C8.4755 3.82455 9.1365 3.76255 9.7785 3.69955C10.3025 3.64955 10.8305 3.59755 11.3425 3.46955C12.2048 3.25829 13.0306 2.9192 13.7925 2.46355C15.9705 6.58055 15.3625 10.5975 13.4195 13.0615C12.3715 14.3895 10.9305 15.2815 9.2795 15.5435C7.7965 15.7795 6.0795 15.5195 4.2495 14.5175C5.3615 12.2505 7.1795 10.0775 9.5465 8.89455C9.78387 8.776 9.96443 8.56801 10.0484 8.31633C10.1325 8.06466 10.1131 7.78992 9.9945 7.55255C9.87595 7.31518 9.66796 7.13463 9.41629 7.05061C9.16461 6.9666 8.88987 6.986 8.6525 7.10455C6.0445 8.40855 4.0465 10.6635 2.7475 13.0685C2.1065 12.0185 1.9145 10.7975 2.0325 9.59655C2.2015 7.86855 2.9925 6.39155 3.7395 5.76755C5.0675 4.66055 6.4675 4.19355 7.7725 3.95355H7.7715Z" fill="#3C6255"/>
</svg>
