<svg width="7" height="12" viewBox="0 0 7 12" fill="none" xmlns="http://www.w3.org/2000/svg">
<path fill-rule="evenodd" clip-rule="evenodd" d="M6.99979 0.999785C6.99974 0.802035 6.94107 0.608737 6.83119 0.444327C6.7213 0.279918 6.56514 0.151778 6.38244 0.076108C6.19974 0.000437737 5.99871 -0.0193653 5.80476 0.0192022C5.6108 0.0577698 5.43264 0.152975 5.29279 0.292785L0.292787 5.29279C0.105316 5.48031 0 5.73462 0 5.99979C0 6.26495 0.105316 6.51926 0.292787 6.70679L5.29279 11.7068C5.43264 11.8466 5.6108 11.9418 5.80476 11.9804C5.99871 12.0189 6.19974 11.9991 6.38244 11.9235C6.56514 11.8478 6.7213 11.7197 6.83119 11.5552C6.94107 11.3908 6.99974 11.1975 6.99979 10.9998V0.999785Z" fill="black"/>
</svg>
