<svg width="14" height="14" viewBox="0 0 14 14" fill="none" xmlns="http://www.w3.org/2000/svg">
<path d="M0.216015 6.83428C0.450301 7.06857 0.684586 7.14228 1.14687 7.14228L6.21601 7.16914C6.26287 7.16914 6.30287 7.16914 6.32316 7.19571C6.34316 7.21571 6.34973 7.256 6.34973 7.29628L6.36973 12.3723C6.37659 12.8343 6.4503 13.0686 6.68459 13.3029C6.99944 13.6243 7.44144 13.5709 7.76944 13.2494C7.94373 13.0751 8.0843 12.7874 8.21144 12.5194L13.3343 1.47057C13.602 0.908281 13.5686 0.492852 13.2943 0.218281C13.026 -0.0494336 12.6109 -0.0828622 12.0486 0.184852L0.999443 5.30771C0.731443 5.43485 0.443729 5.57542 0.269443 5.74971C-0.0519853 6.07771 -0.105414 6.51314 0.216015 6.83457" fill="black"/>
</svg>
