<svg width="164" height="21" viewBox="0 0 164 21" fill="none" xmlns="http://www.w3.org/2000/svg">
<path d="M13.568 18.192V20.56H0.96V18.192H7.552C9.06667 18.192 9.824 17.6587 9.824 16.592C9.824 16.08 9.52533 15.632 8.928 15.248C8.352 14.864 7.30667 14.5547 5.792 14.32C2.61333 13.8293 1.024 12.4853 1.024 10.288C1.024 9.15733 1.39733 8.26133 2.144 7.6C2.89067 6.93867 3.95733 6.608 5.344 6.608H11.488V8.976H5.312C4.24533 8.976 3.712 9.41333 3.712 10.288C3.712 10.7787 3.97867 11.1733 4.512 11.472C5.06667 11.7707 6.13333 12.0693 7.712 12.368C9.376 12.6667 10.6027 13.1787 11.392 13.904C12.1813 14.6293 12.576 15.4933 12.576 16.496C12.576 17.136 12.4693 17.7013 12.256 18.192H13.568ZM29.8983 18.192V20.56H12.8742V18.192H16.4263C15.8076 17.6587 15.3276 16.9973 14.9863 16.208C14.6663 15.3973 14.5063 14.4907 14.5063 13.488C14.5063 12.144 14.8049 10.9387 15.4023 9.872C16.0209 8.784 16.8636 7.94133 17.9303 7.344C19.0183 6.72533 20.2343 6.416 21.5783 6.416C22.9009 6.416 24.0636 6.71467 25.0663 7.312C26.0903 7.90933 26.8796 8.74133 27.4343 9.808C27.9889 10.8747 28.2663 12.1013 28.2663 13.488C28.2663 13.8933 28.2129 14.256 28.1063 14.576H18.9223V12.272H25.4823C25.3969 11.248 24.9809 10.416 24.2343 9.776C23.4876 9.11467 22.5809 8.784 21.5143 8.784C20.2556 8.784 19.2209 9.232 18.4103 10.128C17.5996 11.0027 17.1943 12.1227 17.1943 13.488C17.1943 14.8747 17.6423 16.0053 18.5383 16.88C19.4343 17.7547 20.6289 18.192 22.1223 18.192H29.8983ZM42.8805 18.192V20.56H29.2805V18.192H32.6725C31.4992 16.976 30.9125 15.4187 30.9125 13.52C30.9125 12.1973 31.2112 11.024 31.8085 10C32.4272 8.976 33.2805 8.16533 34.3685 7.568C35.4565 6.97067 36.6938 6.65067 38.0805 6.608H39.2965H41.7605V8.976H39.3605H38.1445C36.8432 9.01867 35.7552 9.46667 34.8805 10.32C34.0272 11.152 33.6005 12.2187 33.6005 13.52C33.6005 14.8853 34.0272 16.0053 34.8805 16.88C35.7338 17.7547 36.8218 18.192 38.1445 18.192H42.8805ZM46.8193 13.584C46.8193 14.864 47.1819 15.92 47.9073 16.752H45.1233C44.8032 16.3467 44.5579 15.8773 44.3873 15.344C44.2166 14.7893 44.1313 14.2027 44.1313 13.584C44.1313 12.2613 44.4299 11.0667 45.0273 10C45.6246 8.93333 46.4566 8.10133 47.5233 7.504C48.5899 6.90667 49.7846 6.608 51.1073 6.608C52.4299 6.608 53.6246 6.90667 54.6913 7.504C55.7579 8.10133 56.5899 8.93333 57.1873 10C57.7846 11.0667 58.0833 12.272 58.0833 13.616C58.0833 15.408 57.5179 16.9333 56.3873 18.192H59.7153V20.56H42.4992V18.192H51.1073C52.3446 18.192 53.3686 17.7653 54.1793 16.912C54.9899 16.0373 55.3953 14.9387 55.3953 13.616C55.3953 12.2933 54.9899 11.2053 54.1793 10.352C53.3686 9.47733 52.3446 9.04 51.1073 9.04C49.8699 9.04 48.8459 9.46667 48.0353 10.32C47.2246 11.1733 46.8193 12.2613 46.8193 13.584ZM59.4055 20.56V18.192L59.6615 18.16C60.1948 18.096 60.5788 17.904 60.8135 17.584C61.0482 17.264 61.1655 16.7947 61.1655 16.176V6.96H63.8535V8.272C64.8348 7.16267 66.2215 6.608 68.0135 6.608C69.7842 6.608 71.1922 7.14133 72.2375 8.208C73.2828 9.27467 73.8055 10.7147 73.8055 12.528V16.176C73.8055 16.7947 73.9228 17.264 74.1575 17.584C74.3922 17.904 74.7762 18.096 75.3095 18.16L75.5655 18.192V20.56H75.2135C73.8482 20.56 72.8242 20.176 72.1415 19.408C71.4588 18.6187 71.1175 17.5413 71.1175 16.176V12.72C71.1175 11.568 70.7762 10.672 70.0935 10.032C69.4322 9.37067 68.5575 9.04 67.4695 9.04C66.3815 9.04 65.5068 9.38133 64.8455 10.064C64.1842 10.7467 63.8535 11.632 63.8535 12.72V16.176C63.8535 17.5413 63.5122 18.6187 62.8295 19.408C62.1468 20.176 61.1228 20.56 59.7575 20.56H59.4055ZM92.4058 18.192V20.56H91.8938C90.3151 20.56 89.1844 19.888 88.5018 18.544C88.0751 19.1413 87.4031 19.632 86.4858 20.016C85.5898 20.3787 84.6404 20.56 83.6378 20.56H75.0617V18.192H78.3578C77.2484 17.0187 76.6938 15.5147 76.6938 13.68C76.6938 12.3787 76.9818 11.216 77.5578 10.192C78.1551 9.14667 78.9658 8.336 79.9898 7.76C81.0351 7.16267 82.2298 6.864 83.5738 6.864C84.7044 6.864 85.6324 7.024 86.3578 7.344V9.712C85.5258 9.43467 84.6404 9.296 83.7018 9.296C82.4431 9.296 81.4084 9.712 80.5978 10.544C79.7871 11.376 79.3818 12.432 79.3818 13.712C79.3818 15.0133 79.7764 16.0907 80.5658 16.944C81.3764 17.776 82.4004 18.192 83.6378 18.192C84.8751 18.192 85.8991 17.776 86.7098 16.944C87.5418 16.112 87.9578 15.0667 87.9578 13.808V0.495998H90.6458V16.176C90.6458 16.7947 90.7631 17.264 90.9978 17.584C91.2324 17.904 91.6164 18.096 92.1498 18.16L92.4058 18.192Z" fill="#3C6255"/>
<path d="M105.943 18.192V20.56H92.343V18.192H99.927C101.442 18.192 102.199 17.6587 102.199 16.592C102.199 16.08 101.9 15.632 101.303 15.248C100.727 14.864 99.6817 14.5547 98.167 14.32C94.9883 13.8293 93.399 12.4853 93.399 10.288C93.399 9.15733 93.7723 8.26133 94.519 7.6C95.2657 6.93867 96.3323 6.608 97.719 6.608H103.863V8.976H97.687C96.6203 8.976 96.087 9.41333 96.087 10.288C96.087 10.7787 96.3537 11.1733 96.887 11.472C97.4417 11.7707 98.5083 12.0693 100.087 12.368C101.751 12.6667 102.978 13.1787 103.767 13.904C104.556 14.6293 104.951 15.4933 104.951 16.496C104.951 17.136 104.844 17.7013 104.631 18.192H105.943ZM122.273 18.192V20.56H105.249V18.192H108.801C108.183 17.6587 107.703 16.9973 107.361 16.208C107.041 15.3973 106.881 14.4907 106.881 13.488C106.881 12.144 107.18 10.9387 107.777 9.872C108.396 8.784 109.239 7.94133 110.305 7.344C111.393 6.72533 112.609 6.416 113.953 6.416C115.276 6.416 116.439 6.71467 117.441 7.312C118.465 7.90933 119.255 8.74133 119.809 9.808C120.364 10.8747 120.641 12.1013 120.641 13.488C120.641 13.8933 120.588 14.256 120.481 14.576H111.297V12.272H117.857C117.772 11.248 117.356 10.416 116.609 9.776C115.863 9.11467 114.956 8.784 113.889 8.784C112.631 8.784 111.596 9.232 110.785 10.128C109.975 11.0027 109.569 12.1227 109.569 13.488C109.569 14.8747 110.017 16.0053 110.913 16.88C111.809 17.7547 113.004 18.192 114.497 18.192H122.273ZM121.968 20.56V18.192L122.224 18.16C122.757 18.096 123.141 17.904 123.376 17.584C123.611 17.264 123.728 16.7947 123.728 16.176V6.96H126.416V8.528C126.843 7.952 127.429 7.49333 128.176 7.152C128.923 6.78933 129.744 6.608 130.64 6.608C131.813 6.608 132.901 6.88533 133.904 7.44L133.04 10.032C132.229 9.47733 131.344 9.2 130.384 9.2C129.232 9.2 128.283 9.62667 127.536 10.48C126.789 11.312 126.416 12.432 126.416 13.84V16.176C126.416 17.5413 126.075 18.6187 125.392 19.408C124.709 20.176 123.685 20.56 122.32 20.56H121.968ZM149.496 18.192V20.56H142.552C141.485 20.56 140.749 20.0693 140.344 19.088L135.256 6.96H138.2L142.264 17.168L146.328 6.96H149.208L144.504 18.192H149.496ZM163.031 18.192V20.56H148.343V18.192H151.895C151.276 17.6587 150.796 16.9973 150.455 16.208C150.135 15.3973 149.975 14.4907 149.975 13.488C149.975 12.144 150.274 10.9387 150.871 9.872C151.49 8.784 152.332 7.94133 153.399 7.344C154.487 6.72533 155.703 6.416 157.047 6.416C158.37 6.416 159.532 6.71467 160.535 7.312C161.559 7.90933 162.348 8.74133 162.903 9.808C163.458 10.8747 163.735 12.1013 163.735 13.488C163.735 13.8933 163.682 14.256 163.575 14.576H154.391V12.272H160.951C160.866 11.248 160.45 10.416 159.703 9.776C158.956 9.11467 158.05 8.784 156.983 8.784C155.724 8.784 154.69 9.232 153.879 10.128C153.068 11.0027 152.663 12.1227 152.663 13.488C152.663 14.8747 153.111 16.0053 154.007 16.88C154.903 17.7547 156.098 18.192 157.591 18.192H163.031Z" fill="#A6BB8D"/>
</svg>
