<svg width="25" height="24" viewBox="0 0 25 24" fill="none" xmlns="http://www.w3.org/2000/svg">
<path d="M23.75 8.77977C23.7271 8.01443 23.5082 7.26776 23.1143 6.6112C22.7203 5.95463 22.1645 5.41013 21.5 5.02977C21.3407 3.94094 20.7942 2.94603 19.9608 2.22743C19.1274 1.50883 18.0629 1.11469 16.9625 1.11727C16.5406 1.11848 16.1206 1.17308 15.7125 1.27977C14.8521 0.458336 13.7083 0 12.5188 0C11.3292 0 10.1854 0.458336 9.325 1.27977C8.91686 1.17308 8.49685 1.11848 8.075 1.11727C6.97029 1.10865 5.89977 1.50005 5.06114 2.2192C4.22252 2.93835 3.67244 3.93666 3.5125 5.02977C2.84564 5.40857 2.28733 5.9524 1.89114 6.60907C1.49495 7.26574 1.27417 8.01321 1.25 8.77977C0.918479 8.77977 0.600537 8.91146 0.366116 9.14588C0.131696 9.3803 0 9.69825 0 10.0298C5.57402e-05 12.2239 0.57766 14.3794 1.67476 16.2796C2.77186 18.1798 4.34981 19.7577 6.25 20.8548V22.5298C6.25 22.8613 6.3817 23.1792 6.61612 23.4137C6.85054 23.6481 7.16848 23.7798 7.5 23.7798H17.5C17.8315 23.7798 18.1495 23.6481 18.3839 23.4137C18.6183 23.1792 18.75 22.8613 18.75 22.5298V20.8548C20.6502 19.7577 22.2281 18.1798 23.3252 16.2796C24.4223 14.3794 24.9999 12.2239 25 10.0298C25 9.69825 24.8683 9.3803 24.6339 9.14588C24.3995 8.91146 24.0815 8.77977 23.75 8.77977ZM3.75 8.77977C3.78175 8.38485 3.93081 8.00843 4.17804 7.69883C4.42527 7.38924 4.75939 7.1606 5.1375 7.04227L6.175 6.71727L5.975 5.65477C5.97826 5.38555 6.03453 5.11961 6.14057 4.87214C6.24662 4.62467 6.40038 4.40052 6.59306 4.21247C6.78575 4.02443 7.01359 3.87619 7.26357 3.77621C7.51356 3.67622 7.78078 3.62646 8.05 3.62977C8.41088 3.62869 8.76672 3.71444 9.0875 3.87977L10.1 4.44227L10.725 3.47977C10.9205 3.18844 11.1846 2.9497 11.4942 2.78462C11.8037 2.61953 12.1492 2.53318 12.5 2.53318C12.8508 2.53318 13.1963 2.61953 13.5058 2.78462C13.8154 2.9497 14.0795 3.18844 14.275 3.47977L14.9 4.44227L15.9125 3.87977C16.2333 3.71444 16.5891 3.62869 16.95 3.62977C17.4907 3.62297 18.0124 3.82875 18.4028 4.20282C18.7932 4.57688 19.0212 5.08931 19.0375 5.62977L18.8375 6.69227L19.8625 7.04227C20.2406 7.1606 20.5747 7.38924 20.822 7.69883C21.0692 8.00843 21.2182 8.38485 21.25 8.77977H3.75Z" fill="black"/>
</svg>
