<svg width="25" height="25" viewBox="0 0 25 25" fill="none" xmlns="http://www.w3.org/2000/svg">
<path d="M12.5 6.00584e-07C11.1091 -0.000580641 9.7507 0.420742 8.60425 1.20833C7.4578 1.99591 6.5772 3.11272 6.07875 4.41125C5.56022 4.26184 5.03457 4.13836 4.50375 4.04125C3.41203 3.84352 2.30447 3.74644 1.195 3.75125L0.98 3.75625L0.92 3.75875L0.895 3.76C0.664374 3.77259 0.446513 3.86987 0.283193 4.03319C0.119873 4.19651 0.0225907 4.41437 0.00999987 4.645L0.00625014 4.73125C0.00375014 4.78125 0.00208324 4.8525 0.00124991 4.945C-0.00125009 5.1275 7.91624e-08 5.38875 0.0112501 5.71C0.0362501 6.3525 0.1075 7.245 0.29125 8.25375C0.45875 9.1725 0.72625 10.21 1.15375 11.25H0.9325C0.685186 11.25 0.448 11.3482 0.273123 11.5231C0.0982451 11.698 0 11.9352 0 12.1825V12.5C0 13.8062 0.2 15.0662 0.5725 16.25H24.4275C24.808 15.0364 25.0011 13.7718 25 12.5V12.1825C25 11.9352 24.9018 11.698 24.7269 11.5231C24.552 11.3482 24.3148 11.25 24.0675 11.25H23.7462L23.7487 11.0937C23.748 9.74063 23.2974 8.42616 22.4679 7.35717C21.6383 6.28818 20.4768 5.52537 19.1662 5.18875C18.7909 3.70516 17.9313 2.38922 16.7236 1.44935C15.5159 0.509491 14.0291 -0.000556511 12.4987 6.00584e-07M12.4987 1.875C13.4986 1.87498 14.4756 2.17476 15.3034 2.73561C16.1312 3.29646 16.7718 4.09261 17.1425 5.02125C16.0677 5.11185 15.0361 5.48583 14.1529 6.10507C13.2697 6.7243 12.5665 7.56666 12.115 8.54625C11.7779 8.04678 11.3941 7.58051 10.9687 7.15375C10.0325 6.2175 8.94375 5.54125 7.84125 5.05C8.20836 4.11361 8.84934 3.3097 9.68046 2.74328C10.5116 2.17685 11.4942 1.87425 12.5 1.875M21.8737 11.0937C21.8737 11.1462 21.8725 11.1983 21.87 11.25H13.4587L13.4362 11.1875V11.0937C13.4362 9.97487 13.8807 8.90181 14.6719 8.11064C15.4631 7.31947 16.5361 6.875 17.655 6.875C18.7739 6.875 19.8469 7.31947 20.6381 8.11064C21.4293 8.90181 21.8737 9.97487 21.8737 11.0937ZM9.64375 8.48C10.4475 9.2825 11.03 10.2487 11.45 11.25H8.825L6.6 9.025C6.51417 8.93289 6.41067 8.85901 6.29567 8.80777C6.18067 8.75653 6.05653 8.72898 5.93065 8.72676C5.80477 8.72454 5.67974 8.74769 5.563 8.79485C5.44627 8.842 5.34022 8.91218 5.2512 9.0012C5.16218 9.09022 5.092 9.19627 5.04485 9.313C4.99769 9.42974 4.97454 9.55477 4.97676 9.68065C4.97898 9.80653 5.00653 9.93067 5.05777 10.0457C5.10901 10.1607 5.18289 10.2642 5.275 10.35L6.175 11.25H3.2125C2.6625 10.155 2.3325 8.98375 2.1375 7.91625C2.00068 7.16391 1.91714 6.40285 1.8875 5.63875V5.63625C2.4625 5.6575 3.265 5.72125 4.16625 5.88625C5.99125 6.22 8.115 6.94875 9.64375 8.48ZM1.33375 18.125C2.37566 20.1927 3.97138 21.9303 5.943 23.1443C7.91461 24.3582 10.1846 25.0006 12.5 25C14.8154 25.0006 17.0854 24.3582 19.057 23.1443C21.0286 21.9303 22.6243 20.1927 23.6662 18.125H1.33375Z" fill="black"/>
</svg>
