<svg width="14" height="14" viewBox="0 0 14 14" fill="none" xmlns="http://www.w3.org/2000/svg">
<path d="M5.33333 1.33257C4.27247 1.33257 3.25505 1.754 2.50491 2.50414C1.75476 3.25429 1.33333 4.2717 1.33333 5.33257C1.33333 6.39344 1.75476 7.41085 2.50491 8.161C3.25505 8.91114 4.27247 9.33257 5.33333 9.33257C6.3942 9.33257 7.41161 8.91114 8.16176 8.161C8.91191 7.41085 9.33333 6.39344 9.33333 5.33257C9.33333 4.2717 8.91191 3.25429 8.16176 2.50414C7.41161 1.754 6.3942 1.33257 5.33333 1.33257ZM3.29442e-08 5.33257C0.000121551 4.48381 0.202812 3.64734 0.591226 2.89267C0.979641 2.13799 1.54256 1.48692 2.2332 0.99356C2.92385 0.500198 3.72226 0.178793 4.5621 0.0560575C5.40194 -0.066678 6.25895 0.0128006 7.06189 0.287888C7.86484 0.562975 8.59053 1.02573 9.17867 1.63768C9.7668 2.24964 10.2004 2.99313 10.4434 3.80636C10.6864 4.61958 10.7318 5.47907 10.5758 6.31337C10.4199 7.14768 10.067 7.93272 9.54667 8.60324L13.138 12.1946C13.2594 12.3203 13.3266 12.4887 13.3251 12.6635C13.3236 12.8383 13.2535 13.0055 13.1299 13.1291C13.0063 13.2527 12.8391 13.3228 12.6643 13.3244C12.4895 13.3259 12.3211 13.2587 12.1953 13.1372L8.604 9.5459C7.81564 10.158 6.87135 10.5365 5.87851 10.6386C4.88567 10.7406 3.88413 10.562 2.98776 10.123C2.0914 9.68408 1.33619 9.00242 0.808017 8.15557C0.279839 7.30871 -0.00011088 6.33064 3.29442e-08 5.33257Z" fill="#3C6255"/>
</svg>
