<svg width="12" height="11" viewBox="0 0 12 11" fill="none" xmlns="http://www.w3.org/2000/svg">
<path d="M6 1.6618L7.14119 4.45893L7.19971 4.60236L7.3542 4.6138L10.3709 4.83726L8.05832 6.79031L7.93972 6.89047L7.9769 7.04119L8.70029 9.97359L6.13174 8.38099L6 8.2993L5.86826 8.38099L3.29971 9.97359L4.0231 7.04119L4.06028 6.89047L3.94168 6.79031L1.62911 4.83726L4.6458 4.6138L4.80029 4.60236L4.85881 4.45893L6 1.6618Z" fill="#FFE644" stroke="#FFE644" stroke-width="0.5"/>
<path d="M6 1L4.62734 4.36449L1 4.63318L3.78037 6.98131L2.91005 10.5093L6 8.59346M6 1L7.37266 4.36449L11 4.63318L8.21963 6.98131L9.08995 10.5093L6 8.59346" fill="#FFE644" stroke="#FFE644" stroke-linecap="round" stroke-linejoin="round"/>
</svg>
