<svg width="28" height="18" viewBox="0 0 28 18" fill="none" xmlns="http://www.w3.org/2000/svg">
<path d="M10.4344 0C10.1828 0 9.94152 0.0999395 9.76362 0.277833C9.58573 0.455726 9.48579 0.697 9.48579 0.948579H5.21719C4.15634 0.946813 3.12027 1.26919 2.24771 1.87255C1.37515 2.47591 0.707755 3.33145 0.334881 4.32461C-0.0379922 5.31777 -0.0985418 6.40114 0.16134 7.42967C0.421222 8.45819 0.989129 9.38277 1.78902 10.0796C1.24469 10.4185 0.795109 10.8897 0.482258 11.4494C0.169407 12.0091 0.00348967 12.6389 0 13.2801C0 15.367 1.70744 17.0744 3.79432 17.0744H18.9716C21.0585 17.0744 22.7659 15.367 22.7659 13.2801C22.7659 12.3543 22.413 11.5157 21.8553 10.8574L25.9854 12.6844C26.1567 12.7628 26.3419 12.8063 26.5302 12.8125C26.7185 12.8187 26.9062 12.7875 27.0823 12.7206C27.2585 12.6537 27.4196 12.5525 27.5563 12.4228C27.693 12.2932 27.8026 12.1377 27.8787 11.9653C27.9548 11.793 27.996 11.6072 27.9997 11.4188C28.0035 11.2305 27.9698 11.0432 27.9006 10.868C27.8314 10.6927 27.7281 10.533 27.5967 10.3979C27.4653 10.2629 27.3084 10.1554 27.1351 10.0815L23.7012 8.55998L26.7936 8.04395C26.9779 8.01331 27.1544 7.94665 27.3131 7.84779C27.4717 7.74892 27.6092 7.61979 27.7179 7.46776C27.8266 7.31572 27.9043 7.14377 27.9465 6.96171C27.9888 6.77966 27.9948 6.59107 27.9641 6.4067C27.9335 6.22234 27.8668 6.04582 27.7679 5.88722C27.6691 5.72862 27.5399 5.59104 27.3879 5.48234C27.2359 5.37365 27.0639 5.29596 26.8819 5.25372C26.6998 5.21148 26.5112 5.20551 26.3269 5.23616L22.2859 5.90965C21.3582 3.70325 19.0437 1.48737 15.1773 1.04344V0.948579C15.1773 0.697 15.0773 0.455726 14.8994 0.277833C14.7215 0.0999395 14.4803 0 14.2287 0H10.4344ZM11.3829 1.89716H13.2801V15.1773H11.3829V1.89716ZM18.023 9.48579C18.5144 9.48579 18.9033 9.85953 18.9526 10.3395L19.0968 10.0853C19.1586 9.97654 19.2414 9.8811 19.3402 9.80445C19.4391 9.7278 19.5521 9.67147 19.6729 9.63869C19.7936 9.60592 19.9196 9.59734 20.0437 9.61347C20.1677 9.62959 20.2874 9.6701 20.3957 9.73265C20.504 9.7952 20.5989 9.87856 20.6749 9.97793C20.7509 10.0773 20.8065 10.1907 20.8385 10.3117C20.8705 10.4326 20.8782 10.5587 20.8612 10.6826C20.8443 10.8066 20.803 10.926 20.7397 11.0339L20.2503 11.8838C20.4445 12.061 20.5997 12.2766 20.7062 12.517C20.8127 12.7573 20.868 13.0172 20.8687 13.2801C20.8687 14.3482 20.0397 15.1773 18.9716 15.1773H15.1773V11.3829H17.0744V10.4344C17.0744 9.90886 17.4975 9.48579 18.023 9.48579ZM4.62907 9.61859C4.81384 9.59583 5.00123 9.62794 5.16788 9.71093C5.33454 9.79392 5.47308 9.92412 5.56626 10.0853L5.94569 10.7455C6.03369 10.6485 6.14081 10.5708 6.26031 10.5173C6.37981 10.4637 6.50911 10.4355 6.64005 10.4344C7.16557 10.4344 7.58863 10.8574 7.58863 11.3829H9.48579V15.1773H3.79432C2.72622 15.1773 1.89716 14.3482 1.89716 13.2801C1.89716 12.212 2.72622 11.3829 3.79432 11.3829H4.12442L3.92332 11.0339C3.84362 10.8986 3.79896 10.7456 3.79339 10.5887C3.78782 10.4318 3.82152 10.2759 3.89143 10.1354C3.96135 9.99477 4.06526 9.87388 4.19374 9.78363C4.32222 9.69339 4.47121 9.63666 4.62717 9.61859" fill="black"/>
</svg>
