<svg width="20" height="20" viewBox="0 0 20 20" fill="none" xmlns="http://www.w3.org/2000/svg">
<path d="M12.7068 10L17.947 4.75985C18.6945 4.01235 18.6945 2.80043 17.947 2.05293C17.1994 1.30543 15.9876 1.30543 15.24 2.05293L9.99988 7.29309L4.75973 2.05293C4.01223 1.30543 2.80031 1.30543 2.05281 2.05293C1.30531 2.80043 1.30531 4.01235 2.05281 4.75985L7.29297 10L2.05281 15.2402C1.30531 15.9877 1.30531 17.1996 2.05281 17.9471C2.42656 18.3208 2.91641 18.5077 3.40625 18.5077C3.89609 18.5077 4.38598 18.3208 4.75969 17.9471L9.99988 12.7069L15.24 17.9471C15.6138 18.3208 16.1036 18.5077 16.5935 18.5077C17.0833 18.5077 17.5732 18.3208 17.9469 17.9471C18.6944 17.1996 18.6944 15.9877 17.9469 15.2402L12.7068 10Z" fill="#2B3B47"/>
</svg>
